<?xml version="1.0" standalone="no"?>
<!DOCTYPE svg PUBLIC "-//W3C//DTD SVG 20010904//EN"
 "http://www.w3.org/TR/2001/REC-SVG-20010904/DTD/svg10.dtd">
<svg version="1.0" xmlns="http://www.w3.org/2000/svg"
 width="700.000000pt" height="700.000000pt" viewBox="0 0 700.000000 700.000000"
 preserveAspectRatio="xMidYMid meet">
<metadata>
Created by potrace 1.14, written by Peter Selinger 2001-2017
</metadata>
<g transform="translate(0.000000,700.000000) scale(0.100000,-0.100000)"
fill="#000000" stroke="none">
<path d="M0 3500 l0 -3500 3500 0 3500 0 0 3500 0 3500 -3500 0 -3500 0 0
-3500z m5995 2883 c-6 -36 -75 -615 -75 -631 0 -9 -263 -12 -1130 -12 l-1129
0 -6 -32 c-5 -31 -145 -1199 -145 -1212 0 -3 451 -6 1001 -6 l1002 0 -6 -42
c-3 -24 -23 -177 -43 -340 l-38 -298 -1003 0 c-579 0 -1003 -4 -1003 -9 0 -14
-139 -1173 -145 -1203 l-5 -28 1176 0 1176 0 -6 -28 c-3 -15 -22 -155 -41
-312 -19 -157 -37 -300 -40 -317 l-6 -33 -1544 0 c-850 0 -1545 3 -1545 6 0 3
124 1017 275 2255 151 1237 275 2253 275 2259 0 7 498 10 1505 10 l1505 0 -5
-27z m-3539 -600 c-11 -71 -516 -4228 -516 -4250 l0 -23 1255 0 1254 0 -4 -27
c-3 -16 -23 -174 -45 -353 -22 -179 -43 -342 -46 -363 l-6 -37 -1659 0 -1660
0 6 33 c7 44 615 5025 615 5043 0 12 61 14 406 14 l406 0 -6 -37z"/>
</g>
</svg>
